<?xml version="1.0" standalone="no"?>
<!DOCTYPE svg PUBLIC "-//W3C//DTD SVG 20010904//EN"
 "http://www.w3.org/TR/2001/REC-SVG-20010904/DTD/svg10.dtd">
<svg version="1.0" xmlns="http://www.w3.org/2000/svg"
 width="1600.000000pt" height="357.000000pt" viewBox="0 0 1600.000000 357.000000"
 preserveAspectRatio="xMidYMid meet">

<g transform="translate(0.000000,357.000000) scale(0.100000,-0.100000)"
fill="#000000" stroke="none">
<path d="M0 3560 c0 -7 843 -10 2510 -10 l2510 0 0 -200 0 -200 -2305 0 -2305
0 0 -550 0 -550 2305 0 2305 0 0 -200 0 -200 -2510 0 -2510 0 0 -825 0 -825
8000 0 8000 0 0 1665 c0 916 -2 1665 -4 1665 -2 0 -14 -20 -26 -45 -54 -111
-217 -136 -302 -47 -44 46 -62 100 -54 160 9 63 40 108 100 142 l51 30 -7882
0 c-5249 0 -7883 -3 -7883 -10z m9950 -210 l0 -199 -1842 -4 c-1986 -3 -1870
-1 -2123 -53 -132 -27 -196 -90 -165 -164 19 -45 82 -77 212 -107 l113 -27
1745 -6 c1314 -5 1757 -10 1795 -19 28 -6 91 -21 140 -33 213 -50 352 -159
405 -317 16 -47 24 -99 28 -178 4 -98 2 -122 -18 -183 -85 -264 -345 -375
-939 -400 -124 -5 -1060 -10 -2078 -10 l-1853 0 0 200 0 199 1973 4 c1314 3
1994 8 2037 15 166 27 198 34 240 56 89 46 120 143 60 186 -40 29 -75 38 -210
57 -99 13 -336 17 -1700 23 -1020 5 -1606 12 -1645 18 -62 11 -133 24 -220 42
-82 16 -226 71 -292 111 -170 102 -243 229 -243 422 0 51 6 115 14 142 58 217
246 346 577 396 140 21 539 26 2262 27 l1727 2 0 -200z m4675 182 c355 -53
633 -180 800 -365 103 -113 141 -224 133 -383 -7 -125 -50 -217 -151 -318
-139 -139 -308 -226 -562 -290 -205 -51 -142 -50 -2087 -53 -1720 -3 -1828 -5
-1829 -21 0 -9 0 -115 0 -234 l-1 -218 -199 0 -199 0 2 643 3 642 195 0 195 0
0 -207 0 -208 1760 0 c1078 0 1793 4 1845 10 47 5 121 19 165 30 270 69 393
199 326 346 -53 117 -274 211 -547 234 -73 6 -860 10 -2031 10 l-1913 0 0 200
0 201 2008 -4 c1481 -3 2028 -7 2087 -15z m-10985 -942 l0 -200 -1510 0 -1510
0 0 200 0 200 1510 0 1510 0 0 -200z"/>
<path d="M15855 3560 c3 -5 13 -10 21 -10 19 0 104 -85 104 -104 0 -8 5 -18
10 -21 6 -4 10 22 10 69 l0 76 -76 0 c-47 0 -73 -4 -69 -10z"/>
<path d="M15745 3535 c-54 -19 -102 -76 -111 -130 -8 -60 3 -100 39 -142 91
-104 244 -76 290 54 15 42 17 57 7 92 -11 41 -57 104 -89 120 -33 18 -96 20
-136 6z m99 -76 c14 -7 27 -18 31 -27 6 -16 -20 -62 -36 -62 -5 0 2 -17 16
-37 14 -21 25 -42 25 -47 0 -14 -30 16 -46 46 -12 23 -21 28 -49 28 -33 0 -35
-2 -35 -35 0 -19 -4 -35 -10 -35 -11 0 -14 162 -3 173 10 11 80 8 107 -4z"/>
<path d="M15754 3436 c-14 -36 0 -51 46 -51 43 0 45 1 45 30 0 28 -3 30 -43
33 -30 2 -44 -1 -48 -12z"/>
</g>
</svg>
