<?xml version="1.0" standalone="no"?>
<!DOCTYPE svg PUBLIC "-//W3C//DTD SVG 20010904//EN"
 "http://www.w3.org/TR/2001/REC-SVG-20010904/DTD/svg10.dtd">
<svg version="1.0" xmlns="http://www.w3.org/2000/svg"
 width="500.000000pt" height="500.000000pt" viewBox="0 0 500.000000 500.000000"
 preserveAspectRatio="xMidYMid meet">

<g transform="translate(0.000000,500.000000) scale(0.100000,-0.100000)"
fill="#000000" stroke="none">
<path d="M344 4702 c-123 -58 -116 -249 10 -297 79 -30 149 -9 200 59 30 39
30 143 0 182 -52 70 -133 91 -210 56z m152 -53 c76 -72 38 -202 -63 -216 -75
-10 -133 43 -133 122 0 46 23 90 58 110 38 21 107 14 138 -16z"/>
<path d="M1634 4702 c-123 -58 -116 -249 10 -297 79 -30 149 -9 200 59 30 39
30 143 0 182 -52 70 -133 91 -210 56z m152 -53 c76 -72 38 -202 -63 -216 -75
-10 -133 43 -133 122 0 46 23 90 58 110 38 21 107 14 138 -16z"/>
<path d="M3085 4706 c-42 -18 -83 -69 -91 -112 -14 -73 10 -134 70 -178 36
-28 139 -29 179 -3 25 16 27 23 27 82 0 58 -2 65 -20 65 -18 0 -20 -7 -20 -55
0 -65 -18 -80 -87 -72 -107 12 -148 142 -67 218 33 31 120 34 152 6 16 -15 21
-15 31 -4 8 11 7 18 -7 30 -41 37 -113 47 -167 23z"/>
<path d="M3554 4700 c-113 -57 -112 -235 1 -290 115 -56 235 20 235 147 0 122
-127 199 -236 143z m152 -53 c84 -76 35 -217 -76 -217 -118 0 -164 170 -62
232 45 29 97 23 138 -15z"/>
<path d="M740 4690 c0 -17 7 -20 50 -20 l50 0 0 -135 0 -135 25 0 25 0 0 135
0 135 50 0 c43 0 50 3 50 20 0 19 -7 20 -125 20 -118 0 -125 -1 -125 -20z"/>
<path d="M1132 4693 c2 -14 15 -19 56 -21 l52 -3 0 -135 c0 -127 1 -134 20
-134 19 0 20 7 20 135 l0 135 55 0 c48 0 55 2 55 20 0 19 -7 20 -131 20 -119
0 -130 -2 -127 -17z"/>
<path d="M2375 4698 c-11 -6 -23 -16 -27 -22 -13 -18 -9 -60 7 -83 14 -20 12
-24 -20 -56 -41 -41 -45 -74 -12 -112 33 -38 103 -45 153 -16 l37 22 22 -21
c20 -19 23 -20 29 -4 4 10 0 25 -10 35 -13 15 -14 24 -5 50 17 51 -11 72 -30
22 l-10 -27 -36 36 -36 37 31 36 c38 43 40 58 7 90 -26 27 -67 32 -100 13z
m73 -30 c20 -20 14 -46 -14 -65 -25 -16 -27 -16 -40 2 -25 34 -11 75 26 75 9
0 21 -5 28 -12z m-3 -168 c32 -33 36 -41 25 -55 -17 -20 -93 -20 -114 1 -22
21 -20 43 6 71 29 31 38 29 83 -17z"/>
<path d="M4000 4555 c0 -148 1 -155 20 -155 17 0 20 7 20 45 l0 45 50 0 c47 0
50 -2 80 -45 22 -33 38 -45 55 -45 l25 0 -35 49 -35 49 30 30 c25 25 30 39 30
76 0 78 -44 106 -166 106 l-74 0 0 -155z m180 95 c29 -29 26 -74 -6 -99 -20
-15 -41 -21 -80 -21 l-54 0 0 70 0 70 60 0 c47 0 64 -4 80 -20z"/>
<path d="M4450 4555 l0 -155 25 0 c24 0 24 1 27 110 l3 109 88 -109 c58 -74
94 -110 107 -110 19 0 20 7 20 155 l0 155 -25 0 c-24 0 -24 0 -27 -111 l-3
-111 -88 111 c-124 155 -127 154 -127 -44z"/>
<path d="M0 2060 l0 -2060 2500 0 2500 0 0 2060 0 2060 -2500 0 -2500 0 0
-2060z m1560 1335 c242 -46 465 -182 599 -365 180 -246 252 -490 252 -860 1
-442 -125 -774 -386 -1017 -139 -131 -294 -210 -495 -253 -91 -20 -123 -22
-240 -17 -209 9 -329 37 -475 110 -381 189 -585 584 -585 1132 0 516 186 905
544 1136 130 85 273 132 461 153 66 7 245 -3 325 -19z m2506 10 c141 -23 227
-61 422 -187 108 -70 130 -72 156 -8 9 22 19 59 22 82 10 66 21 80 56 76 l31
-3 -2 -385 c-2 -253 -6 -389 -13 -397 -11 -14 -47 -17 -64 -5 -6 4 -16 36 -23
72 -57 301 -134 448 -292 560 -143 100 -305 146 -493 138 -122 -5 -184 -24
-292 -89 -58 -35 -152 -125 -203 -194 -71 -97 -149 -285 -185 -445 -64 -284
-60 -747 9 -1044 97 -419 350 -625 765 -626 106 0 194 21 286 66 90 44 150
101 161 151 4 21 8 151 7 288 0 285 -8 330 -70 384 -40 35 -86 49 -192 59
l-77 7 0 35 0 35 180 -5 c219 -6 349 -6 520 -1 l130 4 3 -36 c3 -34 1 -37 -22
-37 -50 0 -104 -30 -123 -68 -16 -34 -18 -74 -21 -469 l-3 -433 -34 0 c-30 0
-35 4 -40 28 -24 116 -52 162 -100 162 -21 0 -36 -9 -137 -79 -76 -53 -200
-113 -283 -136 -150 -41 -435 -27 -615 29 -371 117 -621 406 -704 816 -39 193
-43 439 -11 645 64 405 264 719 569 892 189 107 457 154 682 118z"/>
<path d="M1150 3331 c-92 -30 -161 -71 -228 -135 -83 -78 -130 -142 -182 -245
-92 -183 -143 -393 -159 -651 -31 -491 76 -894 306 -1150 190 -211 468 -268
704 -144 130 68 233 181 314 343 187 372 220 973 77 1391 -106 310 -258 492
-482 577 -76 29 -96 32 -190 32 -73 0 -122 -6 -160 -18z"/>
</g>
</svg>
